<?xml version="1.0" encoding="UTF-8"?>
<svg id="Layer_1" data-name="Layer 1" xmlns="http://www.w3.org/2000/svg" viewBox="0 0 243.53 144.65">
  <path d="M.22,107.55c1.74-17.88,17.02-34.32,34.59-37.44,7.15-1.27,24.45-1.32,31.57-.01,7.85,1.44,15,5.85,21.06,10.83,4.02-1.63,7.81-3.82,12.1-5.01,11.26-3.15,33.07-3.09,44.4-.2,4.52,1.16,8.6,3.18,12.8,5.12,6.59-6.21,16.1-10.73,25.24-11.36,20.17-1.39,39.7-.64,52.72,16.72,3.69,4.92,8.84,15.45,8.84,21.59v22.59h-62.25v14.27H62.95v-14.27H.22c.52-7.34-.7-15.61,0-22.83ZM63.9,116.11c1.42-9.46,5.71-18.56,12.35-25.45,0-1.03-7.28-4.77-8.56-5.22-7.6-2.71-27.71-2.57-35.28.34-12.06,4.64-19.09,17.65-17.93,30.33h49.42ZM229.28,116.11c1.16-12.68-5.87-25.69-17.93-30.33-7.63-2.94-27.57-3.05-35.28-.34-1.21.42-8.09,3.87-8.08,4.75,4.88,5.34,8.65,11.65,10.94,18.53.81,2.44.95,5.27,2.12,7.39h48.23ZM167.02,130.38v-8.8c0-13.95-13.13-28.28-26.13-31.87-8.6-2.38-32.27-2.02-40.65,1.18-10.36,3.96-22.56,17.2-22.56,28.79v10.7h89.34Z"/>
  <path d="M118.45.19c31.2-3.22,48.34,34.76,29.07,58.11-17.3,20.96-49.18,13.59-57.03-11.86C84.31,26.41,96.68,2.44,118.45.19ZM135.49,20.2c-9.98-10.66-26.32-5.67-30.95,7.45-5.51,15.63,7.83,33.93,24.63,27.03,13.22-5.43,15.75-24.41,6.32-34.49Z"/>
  <path d="M189.74,4.95c37.11-4.04,44.01,51.74,10.92,59.93-41.13,10.18-49.95-55.67-10.92-59.93ZM191.62,19.2c-18.91,2.28-15.94,34.72,3.64,32.18,18.3-2.37,15.54-34.49-3.64-32.18Z"/>
  <path d="M46.69,4.94c39.68-4.57,43.81,57.02,7.41,60.69C14.53,69.63,10.69,9.09,46.69,4.94ZM40.31,46.97c15.06,15.95,35.24-11.77,18.8-24.76-14.95-11.81-31.44,11.37-18.8,24.76Z"/>
</svg>