<?xml version="1.0" encoding="UTF-8"?>
<svg id="Layer_1" data-name="Layer 1" xmlns="http://www.w3.org/2000/svg" viewBox="0 0 199.65 178.42">
  <path d="M129.58,154.53l9.63,13.35c4.17,1.08,13.37-1.31,16.49,1.68,2.83,2.7,1.41,8.03-2.45,8.86H46.38c-5.62-1.57-5.17-9.45.72-10.28,4.14-.58,9.09.54,13.31-.26l9.64-13.35H13.37C7.63,154.53.01,146.13.02,140.3l-.02-125.64C.86,6.58,6.95.59,15.1,0h169.87c8.15.89,14.02,6.92,14.66,15.1v124.34c.43,6.15-7.33,15.09-13.37,15.09h-56.68ZM189.11,119.08V14.68c0-1.67-3.52-4.63-5.45-4.18H16.41c-2.06-.62-5.89,2.33-5.89,4.18v104.4h178.59ZM189.11,129.58H10.52v10.29c0,1.22,2.17,3.71,3.58,3.86l171.1.11c1.53-.12,3.91-2.59,3.91-3.97v-10.29ZM126.08,168.1l-9.42-13.12-1.28-.47-31.91.1-9.92,13.5h52.53Z"/>
  <path d="M87.29,43.91c.94-5.65,9.07-6.44,10.71-.8l.1,58.69c7.32-1.22,10.17,7.69,3.17,10.6l-78.74-.13c-6.78-3.05-3.52-11.73,3.49-10.46.74-.74-1.01-17.63.55-20.85,1.45-3.01,6.06-3.5,8.42-1.42.45.4,1.84,2.7,1.84,3.12v19.15h9.46v-30.41c0-2.1,3.11-4.63,5.22-4.7,1.65-.06,5.59,2.25,5.59,3.8v31.31h9.91v-44.38c0-2.04,3.65-3.95,5.62-3.86,2.09.09,5.19,2.72,5.19,4.76v43.48h9.46v-57.89Z"/>
  <path d="M180.55,81.98c-4.22,26.62-35.52,39.67-57.22,23.2l24.1-23.2h33.11Z"/>
  <path d="M139.55,74.09l-24.1,22.76c-14.93-21.83-1.74-51.61,24.1-55.87v33.11Z"/>
  <path d="M24.11,18.57c5.61-.81,21.09-.7,26.91-.11,2.8.28,5.73,1.56,6.1,4.72.67,5.67.55,19.46.01,25.26-.23,2.46-1.72,4.35-4.29,4.72-9.44-.68-20.02.87-29.32.01-2.69-.25-4.39-1.98-4.72-4.74-.55-4.57-.64-20.82.04-25.21.43-2.79,2.66-4.26,5.27-4.64ZM46.29,29.27h-16.67v13.52h16.67v-13.52Z"/>
  <path d="M114.22,20.82l60.7-.11c7.06.08,8.55,9.44,1.37,10.82h-62.64c-6.28-1.5-6.06-9.69.58-10.71Z"/>
  <path d="M180.55,71.16h-30.19v-29.73c15.43,1.43,27.76,14.73,30.19,29.73Z"/>
</svg>