<?xml version="1.0" encoding="UTF-8"?>
<svg id="Layer_1" data-name="Layer 1" xmlns="http://www.w3.org/2000/svg" viewBox="0 0 319.14 287.82">
  <path d="M73.5,159.68c.68,15.1,5.51,29.29,22.28,31.99l183.23.16c8.88.19,11.74,10.75,3.9,15.18l-188.84.59c-17.42-2.19-30.47-14.54-34.43-31.44-10.46-44.56-12.82-93.93-23.03-138.66-2.36-10.33-7.4-18.01-18.3-20.62C12.36,15.47,1.46,18.12.19,10.3-.78,4.34,2.03.77,7.96.2,29.27-1.84,47.46,11.93,52.25,32.47l262.83.52c4.35,2.36,4.65,6.83,3.44,11.29l-31.47,110c-.03,1.56-4.07,5.39-5.09,5.39H73.5ZM300.31,48.14H54.79l15.76,95.77,201.72.09,28.04-95.86Z"/>
  <path d="M89.79,224.24c49.29-6.67,49.48,67.37,2.81,63.42-37.43-3.17-37.62-58.71-2.81-63.42ZM84.25,244.53c-13.14,13.23,4.89,35.16,20.32,24.44,19.16-13.31-4.16-40.72-20.32-24.44Z"/>
  <path d="M233.51,224.24c49.29-6.67,49.48,67.37,2.81,63.42-37.43-3.17-37.62-58.71-2.81-63.42ZM227.97,244.53c-13.14,13.23,4.89,35.16,20.32,24.44,19.16-13.31-4.16-40.72-20.32-24.44Z"/>
</svg>