<?xml version="1.0" encoding="UTF-8"?>
<svg id="Layer_1" data-name="Layer 1" xmlns="http://www.w3.org/2000/svg" viewBox="0 0 515.17 146.04">
  <defs>
    <style>
      .cls-1 {
        font-size: 88.79px;
      }

      .cls-1, .cls-2 {
        fill: #478fcc;
      }

      .cls-1, .cls-3 {
        font-family: Roboto-Regular, Roboto;
        font-variation-settings: 'wght' 400, 'wdth' 100;
      }

      .cls-4, .cls-3 {
        fill: #00a14b;
      }

      .cls-3 {
        font-size: 36.24px;
      }
    </style>
  </defs>
  <g>
    <g>
      <path class="cls-4" d="M53.72,109.45c.12.24,1.61-2.08,1.78-2.2.21-.15.38-.13.6.2.75,4.38,1.64,8.81,2.31,13.23.15.95,1.13,7.47.95,7.64l-.64-.33-2.98-19.01c-.23-.48-1.59,2.02-1.93,2.08-.78.14-2.19-.77-2.95-.46-.59.24-.92,1.92-1.42,2.46-.59.64-1.33-.17-1.13,1.4.33,2.59,1.76,3.14,3.09,3.99.6.38,1.17.14,1.3,1.46.11,1.17.23,3.13.26,4.28.03,1.08-.07,2.1-.72.56l-.28-5.1c-1.98-.74-4.18-2.13-4.39-5.88-.1-1.8.81-1.03,1.44-1.76.53-.61.78-2.3,1.55-2.58.63-.23,1.8.35,2.53.5-.26-1.68-.56-5.08-1.67-6.19-.56-.56-3.56-1.74-4.15-1.68-1.14.11-1.75,2.4-2.57,3.25l-4.05-.51c-.04,1.21.05,4.16.67,5.27.73,1.29,3.68,2.38,3.92,2.94.28,1.88.29,3.77.42,5.63.04.56.47,3.07.06,3.07-.35,0-.4-.58-.48-.96-.43-2.17-.23-4.89-.58-7.1-1.27-1.15-3.56-1.56-4.19-4.08-.25-.98-.79-5.53-.4-5.88l4.26.49c.86-.94,1.61-3.47,2.95-3.25.73.12,3.24,1.16,4.02,1.62,1.65.97,2.11,4.73,2.43,6.88Z"/>
      <path class="cls-4" d="M46.72,94.61c.12,2.68-1.95,2.05-3.11,2.33-2.92.7-3.4,1.3-6.66-.19-.34-.15-2-.65-2.06-1.11l.05-.59c.2-.37,1.11.45,1.44.6,1.14.51,2.31,1,3.44,1.11l6-1.37c.69-2.42-1.04-2.42-2.12-2.64-.57-.12-4.06-.39-4.23-.74,0-.35-.06-.76.19-.79l5.32.69c.6-.07,1.19,1.28,1.55,1.52,1.1.74,5.79,2.26,6.93,2.16.76-.07,1.28-.4.55-1.76-2.85-1.06-5.6-2.85-8.28-4.63-2.22-1.47-3.33-2.92-5.66-2.8-.76.04-4.72,1.3-5,1.06-.23-.25-.26-.81-.07-.99,1.61-.08,3.2-.99,4.82-1.11,3.09-.21,6.57,3.43,9.88,5.31,1.39.79,2.76,1.19,4.08,1.9,1.22.66,1.68,3.06.82,3.82-1.61,1.4-5.92-1.74-7.87-1.77Z"/>
    </g>
    <g>
      <path class="cls-2" d="M69.32,0l67.27,32.97.33,1.38v77.31c.04.95-.38,1.77-1.24,2.18-21.13,9.71-41.68,20.8-62.84,30.42-.87.4-3.54,1.74-4.24,1.77-.91.04-4.52-1.81-5.66-2.34-20.72-9.58-40.98-20.25-61.7-29.85-.86-.41-1.28-1.23-1.24-2.18V34.35l.33-1.38L67.61,0h1.71ZM129.49,33.94L68.56,4.63l-17.49,8.21c-.25.33,6.72,3.66,7.31,3.95,17.71,8.71,35.64,16.99,53.36,25.66.76.13,2.47-.77,3.31-1.13,3.87-1.67,10.32-4.58,13.79-6.75.16-.1.8-.43.66-.62ZM106.96,45.34c.24-.31-5.66-3.13-6.17-3.38-18.09-8.89-36.41-17.33-54.5-26.23l-.93.08-11.69,5.58c.44.69,1.46,1.03,2.18,1.38,19.49,9.42,39.07,18.67,58.49,28.23l12.62-5.66ZM132.63,37.65l-19.54,9.41-.35,26.74c-.27.62-.98.99-1.53,1.32-3.38,2.02-10.95,5.72-14.61,7.07-1.73.63-3.62,1.1-3.91-1.33l.02-25.12-.47-.95L28.61,24l-21.18,10.08,45.83,22.33c2.69,1.67.99,5.17-2.11,3.83L4.29,37.65v73.01l61.89,29.66v-73.01c-1.87-1.01-8.53-2.52-6.4-5.69,1.81-2.69,6.72,1.95,9.03,1.93,3.91-1.71,7.64-3.85,11.52-5.62.75-.34,3.69-1.78,4.22-1.75,1.81.11,3.03,2.87,1.17,3.99l-14.98,7.13v73.01l61.89-29.66V37.65ZM108.67,49.34l-11.69,5.56v22.1l11.69-5.42v-22.24Z"/>
      <path class="cls-4" d="M75.32,111.99c.23-.56.69-1.03,1.19-1.36,6-2.31,12.36-6.73,18.3-8.83,3.19-1.13,4.81,2.12,2.06,3.99l-18.7,8.88c-1.61.7-3.48-1.11-2.85-2.67Z"/>
      <path class="cls-4" d="M83.28,118c.2-.38.44-.7.83-.9,3.15-.98,7.37-4.24,10.42-4.93,2.23-.5,3.7,2.36,1.86,3.91-2.28.61-9.81,5.47-11.63,5.01-1.25-.32-2.08-1.91-1.47-3.09Z"/>
    </g>
  </g>
  <g>
    <text class="cls-1" transform="translate(148.79 87.95)"><tspan x="0" y="0">PET LINE</tspan></text>
    <text class="cls-3" transform="translate(151.54 125.12) scale(1.08 1)"><tspan x="0" y="0">Import &amp; Distribution</tspan></text>
  </g>
</svg>