<?xml version="1.0" encoding="UTF-8"?>
<svg id="Layer_1" data-name="Layer 1" xmlns="http://www.w3.org/2000/svg" viewBox="0 0 231.37 194.29">
  <path d="M174.9,83.66h40.03c.48,0,1.87,1.41,2.28,1.89,1.73,2.01,13.89,20.11,14.13,21.51l.03,84.21c-.05,2.05-1.47,3.11-3.46,3.02l-226.44-.36-1.16-1.16-.32-85.71c.22-1.3,11.82-18.75,13.48-20.77.52-.63,2.25-2.63,2.93-2.63h40.03V22.35c5.2-5.85,9.08-15.46,14.14-21.03.58-.64,1.03-1.12,1.92-1.32l87.02.25,15.39,22.1v61.32ZM105.95,5.45h-31.47l-9.72,15.27h39.8l1.39-15.27ZM119.37,5.45h-7.4l-1.39,15.27h10.18l-1.39-15.27ZM166.57,20.73l-10.41-15.27h-30.54c-.47.35-.5.4-.5.94-.01,4.19,1.43,8.88,1.2,13.17l.7,1.16h39.57ZM126.77,26.28v14.11c0,.1-1.16,1.27-1.4,1.38-3.09,1.43-4.79-2.2-5.71-2.04-3.12,3.24-5.15,2.78-8.33,0-1.58,1.31-3.16,3.06-5.38,2.03-.24-.11-1.4-1.28-1.4-1.38v-13.42l-.69-.69h-41.88v78.21h42.57v-14.11c0-.18,1.17-1.13,1.51-1.27,2.95-1.28,3.83,2.04,5.59,1.87,3.86-3.12,4.45-2.31,8.33,0,1.67-.16,3.08-3.8,5.83-1.5.24.2.95,1.19.95,1.36v13.65h42.57V26.28h-42.57ZM120.53,26.28h-10.41v6.94c2.38-.44,3.75.82,5.39,2.28,2-1.08,3.09-2.86,5.72-2.27-.23-1.31.6-6.54-.7-6.94ZM49.95,89.68h-31.7l-9.95,14.81h39.57l.7-1.16,1.39-13.65ZM56.43,89.68l-.91.7c-.03,4.31-1.38,9.21-1.42,13.41-.01,1.34,1.42.5,2.33.7v-14.81ZM174.9,89.68v14.81c.77-.17,2.55.58,2.33-.7-.74-4.44-.85-8.96-1.41-13.42-.08-.64-.33-1.47-.92-.69ZM223.03,104.49l-9.95-14.81h-31.7c1.05,4.32.64,9.36,1.39,13.65.09.52.24.86.69,1.16h39.57ZM121.22,97.55c-2.41,1.63-4.14-2.03-5.76-1.88-1.29.13-3.06,3.48-5.34,1.88v6.94h11.11v-6.94ZM48.1,110.5H5.53v77.51l.69.69h41.88v-14.11c0-.1,1.16-1.27,1.4-1.38,2.24-1.04,3.9.58,5.37,2.04,3.42-3.05,5.23-2.93,8.74-.08.96-2.26,6.7-3.2,6.7-.59v13.42l.69.69h41.88v-78.21h-42.57v14.11c0,.18-1.17,1.13-1.51,1.27-3.09,1.34-3.74-2.18-5.56-1.91-1.4.2-2.29,2.38-4.24,2.25-1.76-.11-2.61-2.27-3.72-2.3-1.88-.05-3.42,3.94-6.24,1.59-.24-.2-.95-1.19-.95-1.36v-13.65ZM64.76,110.5h-11.11v6.94c2.39-1.78,4.03,1.89,5.8,1.84,1.31-.04,2.94-3.67,5.31-1.84v-6.94ZM161.02,110.5h-42.57v78.21h41.88l.69-.69v-13.42c0-1.38,2.32-1.75,3.43-1.61,1.69.21,2.81,2.16,3.27,2.2,1.2.1,2.71-3.65,6.43-1.68.65.34,1.5,1.65,1.9,1.68,1.05.09,2.8-3.34,5.78-1.97.24.11,1.4,1.28,1.4,1.38v14.11h41.88l.69-.69v-77.51h-42.57v13.65c0,.17-.71,1.16-.95,1.36-2.82,2.35-4.36-1.64-6.24-1.59-1.11.03-1.96,2.19-3.72,2.3-1.95.13-2.84-2.05-4.24-2.25-1.81-.27-2.46,3.25-5.56,1.91-.34-.15-1.51-1.1-1.51-1.27v-14.11ZM177.68,110.5h-11.11v6.94c2.33-1.8,4.06,1.91,5.71,1.76,1.96-.79,3.01-3.17,5.39-1.76v-6.94ZM64.76,181.77c-2.07,1.19-4.73-2.43-5.72-2.26-.91.16-3.12,3.41-5.39,2.26.31,2.2-.74,5.2.7,6.94h10.41v-6.94ZM166.57,181.77v6.94h10.41c1.44-1.74.38-4.75.7-6.94-2.28,1.15-4.49-2.1-5.39-2.26-.98-.17-3.65,3.45-5.72,2.26Z"/>
  <path d="M102.13,46.29c4.91-.83,20.55-.62,25.82-.13,10.58,1,10.43,16.64.4,18.02-5.25.72-19.02.55-24.5.06-5.12-.46-8.93-4.78-8.56-9.96.24-3.39,3.47-7.43,6.84-8ZM101.92,52.79c-2.03,2.52-.11,5.41,2.91,5.84,3.99.56,17.68.56,21.67,0,4.95-.7,4.58-6.22.48-6.87-3.81-.61-18.69-.54-22.67-.05-.7.09-1.97.56-2.39,1.08Z"/>
  <path d="M46.61,130.06c3.89-.57,23.04-.68,26.4.19,9.09,2.35,8.18,16.2-.26,17.62-4.91.83-20.55.62-25.82.13-10.5-.99-10.48-16.45-.32-17.94ZM48.46,135.62c-4.45.66-5.03,5.02-1.04,6.81,7.2-.76,16.65,1.07,23.56-.02,3.65-.57,4.13-6.18-1.41-6.86-4.4-.54-16.8-.57-21.11.07Z"/>
  <path d="M159.05,130.05c4.78-.81,19.27-.57,24.43-.13,11.68,1.01,11.24,16.68,1.79,18.02-5.34.76-19.82.56-25.43.06-10.43-.92-10.59-16.29-.8-17.96ZM161.37,135.61c-5.09.79-4.59,6.23-1.02,6.79,6.91,1.09,16.36-.74,23.56.02,4.2-2.02,3.31-6.31-1.43-6.88-4.34-.52-16.89-.58-21.11.07Z"/>
</svg>